<svg width="24" height="20" viewBox="0 0 24 20" fill="none" xmlns="http://www.w3.org/2000/svg">
<path d="M12 0C5.373 0 0 4.47667 0 10C0 14.2367 3.163 17.855 7.627 19.3117C7.522 18.5208 7.427 17.3075 7.669 16.4442C7.887 15.6633 9.076 11.4733 9.076 11.4733C9.076 11.4733 8.717 10.8742 8.717 9.98833C8.717 8.59833 9.684 7.56 10.888 7.56C11.911 7.56 12.406 8.20083 12.406 8.96833C12.406 9.82583 11.751 11.1083 11.412 12.2975C11.129 13.2925 12.011 14.105 13.189 14.105C15.322 14.105 16.961 12.2308 16.961 9.52583C16.961 7.13167 14.897 5.4575 11.949 5.4575C8.535 5.4575 6.531 7.59167 6.531 9.79667C6.531 10.6558 6.928 11.5783 7.424 12.0783C7.522 12.1775 7.536 12.265 7.507 12.3658L7.174 13.4992C7.121 13.6825 7 13.7217 6.772 13.6333C5.273 13.0517 4.336 11.2258 4.336 9.75917C4.336 6.605 7.086 3.7075 12.265 3.7075C16.428 3.7075 19.663 6.18 19.663 9.48333C19.663 12.93 17.056 15.7033 13.436 15.7033C12.22 15.7033 11.077 15.1775 10.686 14.555L9.938 16.9325C9.667 17.8017 8.936 18.8908 8.446 19.5542C9.57 19.8433 10.763 20 12 20C18.627 20 24 15.5225 24 10C24 4.47667 18.627 0 12 0Z" fill="white"/>
</svg>
